#!OML:ASF H:\Terrain\Patient Classification 1\Walking\liu\liu.ASF
:FULLY-SPECIFIED
:DEGREES
97
root 9.406650 16.292801 -23.653000 3.337900 -2.325640 3.815860
lowerback -69.742699 -20.694399 -46.144199
upperback -2.859720 -24.750900 21.719799
thorax 39.113300 -13.344801 45.998402
lowerneck -210.382004 -49.233398 -126.237000
upperneck 197.563995 -55.518997 112.405006
head 104.944000 -22.118700 53.084698
rclavicle -0.000000 0.000000
rhumerus -435.015991 118.453995 -871.022034
rradius 382.832001
rwrist -217.115997
rhand -306.227997 -239.346008
rfingers 71.250198
rthumb -39.189102 -538.783020
lclavicle -0.000000 0.000000
lhumerus -205.630005 -213.388992 873.059021
lradius 349.488983
lwrist 87.079498
lhand -155.567993 -253.210999
lfingers 71.250198
lthumb 106.277000 43.901402
rfemur -329.627991 34.083199 159.752991
rtibia 463.440002
rfoot -207.959000 -106.863007
rtoes -186.273010
lfemur -51.032902 4.694080 -293.179993
ltibia 215.153992
lfoot -184.381012 73.845200
ltoes -8.977119
98
root 9.407920 16.285700 -23.533199 3.264210 -1.841540 3.628410
lowerback -69.010605 -21.406601 -43.279800
upperback -3.326280 -25.965199 21.913099
thorax 38.234100 -13.866600 44.469498
lowerneck -206.576996 -49.547401 -127.585999
upperneck 197.399994 -56.231499 113.338005
head 104.350998 -22.553200 53.547901
rclavicle 0.000000 0.000000
rhumerus -438.977997 119.059998 -871.715027
rradius 382.771973
rwrist -219.526001
rhand -310.326996 -234.218002
rfingers 71.250198
rthumb -43.147301 -533.578979
lclavicle 0.000000 0.000000
lhumerus -205.373001 -216.007996 873.760986
lradius 355.238983
lwrist 89.074898
lhand -152.194992 -253.068008
lfingers 71.250198
lthumb 109.529999 43.875000
rfemur -333.193024 36.870602 159.528992
rtibia 449.725983
rfoot -205.822998 -103.046997
rtoes -186.007996
lfemur -42.100300 1.076120 -291.445984
ltibia 208.110992
lfoot -184.373001 74.520004
ltoes -17.154301
99
root 9.406970 16.282400 -23.406601 3.284300 -1.425490 3.636060
lowerback -70.359505 -22.315300 -42.707600
upperback -3.863660 -27.172300 21.933601
thorax 38.539398 -14.451099 43.999001
lowerneck -203.661011 -49.291302 -129.856995
upperneck 198.791016 -55.938702 114.576996
head 104.378998 -22.549099 54.497700
rclavicle 0.000000 -0.000000
rhumerus -440.643005 118.533005 -870.682007
rradius 380.283020
rwrist -220.839996
rhand -310.362000 -229.776001
rfingers 71.250198
rthumb -43.180801 -529.135010
lclavicle 0.000000 -0.000000
lhumerus -205.727997 -219.134995 875.343994
lradius 361.172974
lwrist 94.597595
lhand -148.537003 -250.626999
lfingers 71.250198
lthumb 113.058006 46.126297
rfemur -337.826996 42.704700 156.164993
rtibia 436.976990
rfoot -206.221008 -100.056999
rtoes -173.672012
lfemur -32.983402 1.519940 -291.207001
ltibia 199.648987
lfoot -184.065002 71.303101
ltoes -14.799600
100
root 9.405940 16.279800 -23.276300 3.415100 -1.101170 3.819660
lowerback -72.956001 -23.492001 -44.578300
upperback -4.245350 -28.476902 21.629801
thorax 39.820599 -15.149699 44.512001
lowerneck -203.777008 -48.767601 -130.895004
upperneck 201.079010 -55.165401 115.101997
head 105.165009 -22.229000 55.076199
rclavicle 0.000000 0.000000
rhumerus -439.645996 116.733002 -868.664001
rradius 375.835999
rwrist -219.127991
rhand -305.367004 -228.957993
rfingers 71.250198
rthumb -38.357601 -528.409973
lclavicle 0.000000 0.000000
lhumerus -206.005005 -223.334015 876.427979
lradius 366.557007
lwrist 100.889999
lhand -150.138000 -250.718002
lfingers 71.250198
lthumb 111.513992 46.118500
rfemur -343.790009 49.571198 150.166000
rtibia 424.911987
rfoot -207.598999 -95.294197
rtoes -157.749008
lfemur -24.187300 3.295330 -292.355011
ltibia 189.093002
lfoot -182.243988 65.776299
ltoes -2.564950
101
root 9.408040 16.275299 -23.146900 3.476500 -0.781887 4.024710
lowerback -74.795296 -23.813702 -45.930199
upperback -3.920550 -28.659698 20.345699
thorax 41.212700 -15.289400 43.840298
lowerneck -204.056000 -50.101799 -130.807999
upperneck 202.436005 -57.007500 114.525002
head 105.953995 -23.133499 54.595299
rclavicle 0.000000 0.000000
rhumerus -441.058990 114.080002 -868.119995
rradius 375.089996
rwrist -214.468002
rhand -301.924011 -237.337006
rfingers 71.250198
rthumb -35.032497 -536.846008
lclavicle 0.000000 0.000000
lhumerus -205.908997 -231.408005 877.093994
lradius 372.335999
lwrist 106.251999
lhand -154.531006 -255.062012
lfingers 71.250198
lthumb 107.278000 41.998501
rfemur -348.908997 53.881302 144.507996
rtibia 412.859985
rfoot -208.412003 -90.325096
rtoes -169.412003
lfemur -13.254900 3.601820 -294.080017
ltibia 175.774002
lfoot -178.831009 63.026199
ltoes -7.513680
102
root 9.410570 16.282101 -23.020300 3.345630 -0.424719 3.998500
lowerback -75.077499 -23.466999 -43.915703
upperback -3.072290 -28.293600 19.018000
thorax 42.044903 -15.088800 41.326500
lowerneck -202.015991 -51.616802 -129.041992
upperneck 201.867996 -59.321701 112.100998
head 105.554001 -24.384800 52.987400
rclavicle -0.000000 -0.000000
rhumerus -442.958008 109.169998 -867.534058
rradius 375.783020
rwrist -211.117004
rhand -296.592010 -243.690002
rfingers 71.250198
rthumb -29.883699 -543.278015
lclavicle -0.000000 -0.000000
lhumerus -206.278000 -239.552994 877.926025
lradius 378.325989
lwrist 109.509003
lhand -157.636002 -259.354980
lfingers 71.250198
lthumb 104.281998 37.858398
rfemur -351.226990 56.563904 142.057007
rtibia 400.531006
rfoot -209.101013 -86.334900
rtoes -171.608002
lfemur 1.149990 3.357830 -293.503998
ltibia 160.312988
lfoot -174.873993 61.243599
ltoes -23.317799
103
root 9.410570 16.294399 -22.897900 3.154540 0.023509 3.901010
lowerback -73.751900 -24.101902 -41.900402
upperback -2.882920 -29.354301 18.837601
thorax 41.497002 -15.565600 39.913799
lowerneck -199.544998 -51.240200 -129.513992
upperneck 203.143005 -59.079899 112.169998
head 105.535004 -24.384001 53.180901
rclavicle -0.000000 0.000000
rhumerus -444.459991 106.554001 -866.335999
rradius 374.105988
rwrist -208.885986
rhand -297.088989 -241.501007
rfingers 71.250198
rthumb -30.363800 -541.082031
lclavicle -0.000000 0.000000
lhumerus -207.865005 -242.138992 879.549011
lradius 383.740997
lwrist 111.897003
lhand -154.115997 -258.125000
lfingers 71.250198
lthumb 107.677002 38.914799
rfemur -352.877014 58.365597 140.309006
rtibia 387.651001
rfoot -208.296997 -82.609192
rtoes -165.326004
lfemur 16.199200 2.542200 -291.800995
ltibia 144.518997
lfoot -171.536011 56.670700
ltoes -23.770102
104
root 9.408350 16.288500 -22.770399 3.111030 0.418267 4.170300
lowerback -73.528801 -25.106699 -44.777699
upperback -3.008980 -30.427498 18.041399
thorax 41.460800 -16.142300 40.587502
lowerneck -200.919006 -50.293900 -129.716003
upperneck 207.625000 -58.294502 113.857002
head 107.375000 -23.838200 54.134003
rclavicle -0.000000 -0.000000
rhumerus -446.834991 106.464996 -866.314026
rradius 372.153015
rwrist -206.089005
rhand -303.588013 -245.083008
rfingers 71.250198
rthumb -36.639198 -544.565002
lclavicle -0.000000 -0.000000
lhumerus -208.880997 -245.408005 881.075989
lradius 388.428009
lwrist 116.231003
lhand -147.895996 -254.409012
lfingers 71.250198
lthumb 113.676994 42.309998
rfemur -356.347992 60.454998 134.046005
rtibia 374.510986
rfoot -207.427994 -77.028595
rtoes -180.957001
lfemur 29.699600 2.006220 -294.037994
ltibia 128.944000
lfoot -168.588013 52.265800
ltoes -24.460102
